# xmcd
#
# Track frame offsets:
#	150
#	21177
#	40586
#	60764
#	86624
#	108585
#	123342
#	138128
#	157370
#	166528
#	197635
#	215677
#	230063
#	241808
#	261865
#	283657
#	310668
#	337913
#
# Disc length: 4652
#
# Revision: 3
# Processed by: cddbd v1.5.1PL0 Copyright (c) Steve Scherf et al.
# Submitted via: CDex 1.51
# Normalized: r2:DSETVAR1
#
DISCID=f1122a12
DTITLE=Various Artist - Spirits 4
DYEAR=2002
DGENRE=Pop
TTITLE0=Bliss - Lost Soul
TTITLE1=Beautiful World - In Existence
TTITLE2=Enigma - Mea Culpa
TTITLE3=Atman - All is One
TTITLE4=Adiemus - Beyond the Century
TTITLE5=Momont - Espiritu
TTITLE6=Sheila Chandra - Ever so Lonely/Eyes/Ocean
TTITLE7=Afro Celt Sound System - Inion (Daughter)
TTITLE8=Clannad - Caislean Oir
TTITLE9=Dead Can Dance - Yulunga (Spirit Dance)
TTITLE10=Sacred Spirit Featuring Cherokee Rose - The Cradlesong
TTITLE11=Susheela Raman - Trust in Me
TTITLE12=Moby - Novio
TTITLE13=I Muvrini - Un Ti Ne Scurda
TTITLE14=Grassskirt - Burundi Bedsong
TTITLE15=Los Olvidados - Cinematic Sundown
TTITLE16=David Lanz - Cristofori's Dream
TTITLE17=Milla - In a Glade
EXTD=YEAR: 2002
EXTT0=
EXTT1=
EXTT2=
EXTT3=
EXTT4=
EXTT5=
EXTT6=
EXTT7=
EXTT8=
EXTT9=
EXTT10=
EXTT11=
EXTT12=
EXTT13=
EXTT14=
EXTT15=
EXTT16=
EXTT17=
PLAYORDER=
